Coordinates
version=1
nRows=14
nColumns=24
inDegrees=yes

Units are S.I. units (second, meters, Newtons, ...)
Angles are in degrees.

endheader
time	pelvis_tilt	pelvis_list	pelvis_rotation	pelvis_tx	pelvis_ty	pelvis_tz	hip_flexion_r	hip_adduction_r	hip_rotation_r	knee_angle_r	ankle_angle_r	subtalar_angle_r	mtp_angle_r	hip_flexion_l	hip_adduction_l	hip_rotation_l	knee_angle_l	ankle_angle_l	subtalar_angle_l	mtp_angle_l	lumbar_extension	lumbar_bending	lumbar_rotation
      7.25833333	      0.56106397	     29.50177317	     89.75186195	      0.33977366	      0.99611932	     -1.24133279	     58.56337223	    -19.82630895	     -7.98706543	    -78.79034585	    -19.28060126	      0.00000000	      0.00000000	     64.29999699	    -17.14031924	    -36.72836590	    -29.01845011	    -24.92645915	      0.00000000	      0.00000000	    -26.05883644	      0.56176600	     -1.06053777
      7.26666667	      0.56048310	     29.50153637	     89.75231622	      0.33975415	      0.99608016	     -1.24133852	     58.56335011	    -19.82613614	     -7.98738147	    -78.79022026	    -19.28057679	      0.00000000	      0.00000000	     64.29935775	    -17.14124801	    -36.72824435	    -29.01850220	    -24.92619897	      0.00000000	      0.00000000	    -26.05883982	      0.56201357	     -1.06067307
      7.27500000	      0.56002525	     29.50218992	     89.75219905	      0.33976674	      0.99607800	     -1.24135611	     58.56377260	    -19.82584088	     -7.98780936	    -78.78991089	    -19.28055380	      0.00000000	      0.00000000	     64.29924331	    -17.14112477	    -36.72843930	    -29.01873055	    -24.92593872	      0.00000000	      0.00000000	    -26.05885571	      0.56243425	     -1.06078065
      7.28333333	      0.55762667	     29.50558235	     89.75194642	      0.33975684	      0.99609132	     -1.24135917	     58.56469567	    -19.82462664	     -7.98937297	    -78.78916403	    -19.28047940	      0.00000000	      0.00000000	     64.30058076	    -17.14132395	    -36.72903443	    -29.01852293	    -24.92513600	      0.00000000	      0.00000000	    -26.05862672	      0.56327582	     -1.06113159
      7.29166667	      0.55748120	     29.50764085	     89.74711023	      0.33976908	      0.99609265	     -1.24134106	     58.56608703	    -19.82040145	     -7.99433810	    -78.78715143	    -19.28012844	      0.00000000	      0.00000000	     64.30247762	    -17.13396021	    -36.73394537	    -29.02326091	    -24.92157757	      0.00000000	      0.00000000	    -26.06162460	      0.56288626	     -1.06237761
      7.30000000	      0.55738415	     29.50758641	     89.74721779	      0.33978445	      0.99610174	     -1.24134462	     58.56656668	    -19.82021991	     -7.99457274	    -78.78675047	    -19.28009827	      0.00000000	      0.00000000	     64.30221862	    -17.13380939	    -36.73418238	    -29.02368140	    -24.92130040	      0.00000000	      0.00000000	    -26.06195317	      0.56334096	     -1.06245299
      7.30833333	      0.55723680	     29.50755970	     89.74719445	      0.33979305	      0.99611738	     -1.24133858	     58.56695879	    -19.81993951	     -7.99486895	    -78.78651419	    -19.28007753	      0.00000000	      0.00000000	     64.30205586	    -17.13357041	    -36.73442610	    -29.02404520	    -24.92102302	      0.00000000	      0.00000000	    -26.06220253	      0.56372006	     -1.06254926
      7.31666667	      0.55655858	     29.50829057	     89.74722221	      0.33977865	      0.99611947	     -1.24133328	     58.56727755	    -19.81932970	     -7.99548667	    -78.78631736	    -19.28004220	      0.00000000	      0.00000000	     64.30236272	    -17.13340861	    -36.73470923	    -29.02414384	    -24.92074425	      0.00000000	      0.00000000	    -26.06227893	      0.56393133	     -1.06258875
      7.32500000	      0.55119196	     29.51193697	     89.75082031	      0.33974260	      0.99608440	     -1.24131844	     58.57254321	    -19.81536300	     -8.00125293	    -78.78250859	    -19.27945856	      0.00000000	      0.00000000	     64.30056067	    -17.13569871	    -36.73540358	    -29.02491689	    -24.91819382	      0.00000000	      0.00000000	    -26.06379344	      0.56674262	     -1.06250960
      7.33333333	      0.55237849	     29.51252843	     89.74936300	      0.33976564	      0.99608889	     -1.24134321	     58.57331588	    -19.81458708	     -8.00253834	    -78.78176134	    -19.27931738	      0.00000000	      0.00000000	     64.30033956	    -17.13322757	    -36.73638622	    -29.02596482	    -24.91748850	      0.00000000	      0.00000000	    -26.06422796	      0.56607971	     -1.06248694
      7.34166667	      0.55188034	     29.51219432	     89.74479987	      0.33976607	      0.99610211	     -1.24129602	     58.57557362	    -19.80944836	     -8.01257810	    -78.77490422	    -19.27789882	      0.00000000	      0.00000000	     64.30059396	    -17.12592206	    -36.74269125	    -29.03071480	    -24.91047999	      0.00000000	      0.00000000	    -26.06837311	      0.56510230	     -1.06256891
      7.35000000	      0.55222325	     29.51187846	     89.74494822	      0.33978234	      0.99609921	     -1.24130724	     58.57587796	    -19.80950740	     -8.01272611	    -78.77459871	    -19.27784196	      0.00000000	      0.00000000	     64.30008335	    -17.12595734	    -36.74275671	    -29.03087661	    -24.91022722	      0.00000000	      0.00000000	    -26.06861095	      0.56529993	     -1.06256533
      7.35833333	      0.55401544	     29.51353537	     89.74361171	      0.33981013	      0.99612565	     -1.24132238	     58.57670824	    -19.80912859	     -8.01353299	    -78.77414045	    -19.27770734	      0.00000000	      0.00000000	     64.30067594	    -17.12364759	    -36.74376997	    -29.03126938	    -24.90963563	      0.00000000	      0.00000000	    -26.06879654	      0.56462462	     -1.06254863
      7.36666667	      0.55434758	     29.51419926	     89.74332730	      0.33979594	      0.99613019	     -1.24132846	     58.57700510	    -19.80880459	     -8.01404700	    -78.77390077	    -19.27764891	      0.00000000	      0.00000000	     64.30108464	    -17.12312758	    -36.74412336	    -29.03124835	    -24.90939142	      0.00000000	      0.00000000	    -26.06897972	      0.56421913	     -1.06256340
